<mxfile host="65bd71144e">
    <diagram name="Seite-1" id="aRv6oYe5e08HPoC1CS1N">
        <mxGraphModel dx="1054" dy="815" grid="1" gridSize="10" guides="1" tooltips="1" connect="1" arrows="1" fold="1" page="1" pageScale="1" pageWidth="827" pageHeight="1169" math="0" shadow="0">
            <root>
                <mxCell id="0"/>
                <mxCell id="1" parent="0"/>
                <mxCell id="4" value="" style="rounded=1;whiteSpace=wrap;html=1;shadow=0;glass=0;sketch=0;fillStyle=solid;fillColor=#FFFFFF;" vertex="1" parent="1">
                    <mxGeometry x="353.5" y="144" width="370" height="270" as="geometry"/>
                </mxCell>
                <mxCell id="RAA4VYRwvk91mv3x0SY0-12" value="" style="group" parent="1" vertex="1" connectable="0">
                    <mxGeometry x="323" y="90" width="130" height="88.07" as="geometry"/>
                </mxCell>
                <mxCell id="RAA4VYRwvk91mv3x0SY0-11" value="" style="outlineConnect=0;verticalLabelPosition=bottom;verticalAlign=top;align=center;html=1;shape=mxgraph.aws3.virtual_private_cloud;strokeWidth=40;perimeterSpacing=10;shadow=0;fillColor=#f5f5f5;fontColor=#333333;strokeColor=#666666;gradientColor=#FFFFFF;" parent="RAA4VYRwvk91mv3x0SY0-12" vertex="1">
                    <mxGeometry width="130" height="88.07000000000004" as="geometry"/>
                </mxCell>
                <mxCell id="RAA4VYRwvk91mv3x0SY0-10" value="" style="shape=image;verticalLabelPosition=bottom;labelBackgroundColor=default;verticalAlign=top;aspect=fixed;imageAspect=0;image=data:image/svg+xml,PHN2ZyB4bWxucz0iaHR0cDovL3d3dy53My5vcmcvMjAwMC9zdmciIGlkPSJzdmcyIiB2ZXJzaW9uPSIxLjEiIHhtbDpzcGFjZT0icHJlc2VydmUiIHdpZHRoPSI1ODAiIGhlaWdodD0iMjE3LjUiIHZpZXdCb3g9IjAgMCA1ODAgMjE3LjUiPjxtZXRhZGF0YSBpZD0ibWV0YWRhdGE4Ij5pbWFnZS9zdmcreG1sPC9tZXRhZGF0YT48ZGVmcyBpZD0iZGVmczYiLz48ZyBpZD0iZzEwIiB0cmFuc2Zvcm09Im1hdHJpeCgxLjI1LDAsMCwtMS4yNSwwLDIxNy41KSI+PGcgaWQ9ImcxMiIgdHJhbnNmb3JtPSJzY2FsZSgwLjEsMC4xKSI+PHBhdGggZD0ibSAxMjg5LjY3LDExNDAgLTI2OS42Nyw5MCAwLDM5MCAyNzAsLTgwIC0wLjMzLC00MDAiIHN0eWxlPSJmaWxsOiNmNjhkMTE7ZmlsbC1vcGFjaXR5OjE7ZmlsbC1ydWxlOm5vbnplcm87c3Ryb2tlOm5vbmUiIGlkPSJwYXRoMTQiLz48cGF0aCBkPSJtIDEzNjAsMTU0MCAyNzAsODAgLTAuOTQsLTM4OS43MyBMIDEzNjAsMTE0MCBsIDAsNDAwIiBzdHlsZT0iZmlsbDojZjY4ZDExO2ZpbGwtb3BhY2l0eToxO2ZpbGwtcnVsZTpub256ZXJvO3N0cm9rZTpub25lIiBpZD0icGF0aDE2Ii8+PHBhdGggZD0iTSAxNTc1LDE2NjIuMjMgMTMyMy4zNiwxNzQwIDEwNzUsMTY2Mi4yMyBsIDI0OC43MiwtNjYuNjcgMjUxLjI4LDY2LjY3IiBzdHlsZT0iZmlsbDojZjY4ZDExO2ZpbGwtb3BhY2l0eToxO2ZpbGwtcnVsZTpub256ZXJvO3N0cm9rZTpub25lIiBpZD0icGF0aDE4Ii8+PHBhdGggZD0ibSAxOTY5LjY3LDExNDAgLTI2OS42Nyw5MCAwLDM5MCAyNzAsLTgwIC0wLjMzLC00MDAiIHN0eWxlPSJmaWxsOiNmNjhkMTE7ZmlsbC1vcGFjaXR5OjE7ZmlsbC1ydWxlOm5vbnplcm87c3Ryb2tlOm5vbmUiIGlkPSJwYXRoMjAiLz48cGF0aCBkPSJtIDIwNDAsMTU0MCAyNzAsODAgLTAuOTQsLTM4OS43MyBMIDIwNDAsMTE0MCBsIDAsNDAwIiBzdHlsZT0iZmlsbDojZjY4ZDExO2ZpbGwtb3BhY2l0eToxO2ZpbGwtcnVsZTpub256ZXJvO3N0cm9rZTpub25lIiBpZD0icGF0aDIyIi8+PHBhdGggZD0iTSAyMjU1LDE2NjIuMjMgMjAwMy4zNiwxNzQwIDE3NTUsMTY2Mi4yMyBsIDI0OC43MiwtNjYuNjcgMjUxLjI4LDY2LjY3IiBzdHlsZT0iZmlsbDojZjY4ZDExO2ZpbGwtb3BhY2l0eToxO2ZpbGwtcnVsZTpub256ZXJvO3N0cm9rZTpub25lIiBpZD0icGF0aDI0Ii8+PHBhdGggZD0iTSAyNzAsOTcwIDAsMTA1MCAwLDY2MCAyNjkuNjcyLDU3MCAyNzAsOTcwIiBzdHlsZT0iZmlsbDojZjY4ZDExO2ZpbGwtb3BhY2l0eToxO2ZpbGwtcnVsZTpub256ZXJvO3N0cm9rZTpub25lIiBpZD0icGF0aDI2Ii8+PHBhdGggZD0iTSAzNDAsOTcwIDYxMCwxMDUwIDYwOS4wNjMsNjYwLjI2MiAzNDAsNTcwIGwgMCw0MDAiIHN0eWxlPSJmaWxsOiNmNjhkMTE7ZmlsbC1vcGFjaXR5OjE7ZmlsbC1ydWxlOm5vbnplcm87c3Ryb2tlOm5vbmUiIGlkPSJwYXRoMjgiLz48cGF0aCBkPSJNIDU1NSwxMDkyLjIzIDMwMy4zNTksMTE3MCA1NSwxMDkyLjIzIDMwMy43MjMsMTAyNS41NiA1NTUsMTA5Mi4yMyIgc3R5bGU9ImZpbGw6I2Y2OGQxMTtmaWxsLW9wYWNpdHk6MTtmaWxsLXJ1bGU6bm9uemVybztzdHJva2U6bm9uZSIgaWQ9InBhdGgzMCIvPjxwYXRoIGQ9Ik0gOTQ5LjY3Miw1NzAgNjgwLDY2MCBsIDAsMzkwIDI3MCwtODAgLTAuMzI4LC00MDAiIHN0eWxlPSJmaWxsOiNmNjhkMTE7ZmlsbC1vcGFjaXR5OjE7ZmlsbC1ydWxlOm5vbnplcm87c3Ryb2tlOm5vbmUiIGlkPSJwYXRoMzIiLz48cGF0aCBkPSJtIDEwMjAsOTcwIDI3MCw4MCAtMC45NCwtMzg5LjczOCBMIDEwMjAsNTcwIGwgMCw0MDAiIHN0eWxlPSJmaWxsOiNmNjhkMTE7ZmlsbC1vcGFjaXR5OjE7ZmlsbC1ydWxlOm5vbnplcm87c3Ryb2tlOm5vbmUiIGlkPSJwYXRoMzQiLz48cGF0aCBkPSJNIDEyMzUsMTA5Mi4yMyA5ODMuMzU5LDExNzAgNzM1LDEwOTIuMjMgOTgzLjcyMywxMDI1LjU2IDEyMzUsMTA5Mi4yMyIgc3R5bGU9ImZpbGw6I2Y2OGQxMTtmaWxsLW9wYWNpdHk6MTtmaWxsLXJ1bGU6bm9uemVybztzdHJva2U6bm9uZSIgaWQ9InBhdGgzNiIvPjxwYXRoIGQ9Ik0gNjA5LjY3MiwwIDM0MCw5MCAzNDAsNDgwIDYxMCw0MDAgNjA5LjY3MiwwIiBzdHlsZT0iZmlsbDojZjY4ZDExO2ZpbGwtb3BhY2l0eToxO2ZpbGwtcnVsZTpub256ZXJvO3N0cm9rZTpub25lIiBpZD0icGF0aDM4Ii8+PHBhdGggZD0iTSA2ODAsNDAwIDk1MCw0ODAgOTQ5LjA2Myw5MC4yNjE3IDY4MCwwIGwgMCw0MDAiIHN0eWxlPSJmaWxsOiNmNjhkMTE7ZmlsbC1vcGFjaXR5OjE7ZmlsbC1ydWxlOm5vbnplcm87c3Ryb2tlOm5vbmUiIGlkPSJwYXRoNDAiLz48cGF0aCBkPSJNIDg5NSw1MjIuMjMgNjQzLjM1OSw2MDAgMzk1LDUyMi4yMyA2NDMuNzIzLDQ1NS41NTkgODk1LDUyMi4yMyIgc3R5bGU9ImZpbGw6I2Y2OGQxMTtmaWxsLW9wYWNpdHk6MTtmaWxsLXJ1bGU6bm9uemVybztzdHJva2U6bm9uZSIgaWQ9InBhdGg0MiIvPjxwYXRoIGQ9Im0gMTgwMy45LDM0NC43NSAtMTkuODQsLTAuMDcgYyAtNy4yOCwwIC0xNi41NiwtNC45MTggLTE4Ljg0LC0xMi44OTEgbCAtNjAuMTksLTIxMi4wNTEgLTU5LjUzLDIxMS41OSBjIC0xLjc5LDYuNjMzIC04LjA0LDEzLjM1MiAtMTYuNTQsMTMuMzUyIGwgLTIzLjQ5LDAgYyAtOC40NiwwIC0xNC42MywtNi44MDkgLTE2LjM0LC0xMy40ODkgbCAtNTUuMzgsLTIwOS4zOSAtNTcuMjIsMjEwLjAzOSBjIC0yLjI2LDcuNjggLTExLjc3LDEyLjg0IC0xOS4yMywxMi44NCBsIC0yOC41NSwwLjA1IGMgLTYuMSwwIC0xMS43NywtMi42MjEgLTE0LjgxLC02LjgzOSAtMi4wNiwtMi44NiAtMi42MywtNi4xMDIgLTEuNjgsLTguOTIyIGwgODguNCwtMzEyLjk1NzMgYyAxLjk1LC02LjU4MjAxIDcuNjUsLTEzLjIxMDkyIDE1Ljk5LC0xMy4yMTA5MiBsIDI4LjM5LDAgYyA3LjY3LDAgMTQuMzksNS41ODk4NSAxNi4zMywxMy41MTk1MiBsIDU0LjQxLDIwOC40Njg3IDU5LjIxLC0yMDguNzA3IGMgMS43OCwtNi4zOTA1OSA3LjUxLC0xMy4yODEyMiAxNS44OSwtMTMuMjgxMjIgbCAyNy45MywwIGMgNy43NywwIDE0LjMxLDUuMzk4NDQgMTYuMjMsMTMuMzA4NjIgbCA4NS4wOSwzMTIuNzMwNiBjIDEsMy4wMTIgMC40Miw2LjM1OSAtMS42MSw5LjE4IC0yLjk5LDQuMTUyIC04LjU5LDYuNzMgLTE0LjYyLDYuNzMiIHN0eWxlPSJmaWxsOiMxMDBmMGQ7ZmlsbC1vcGFjaXR5OjE7ZmlsbC1ydWxlOm5vbnplcm87c3Ryb2tlOm5vbmUiIGlkPSJwYXRoNDQiLz48cGF0aCBkPSJtIDIwNDkuMzgsMjExLjg3OSAtMTQ5Ljk4LDAgYyAzLjQ1LDQyLjA5IDMwLjc4LDg1LjczIDc3LjA4LDg3LjQxIDQ5LjI3LC0xLjYwOSA3MS44MSwtNDQuMjUgNzIuOSwtODcuNDEgeiBtIC03My4wMSwxMzUuMTA5IGMgLTEwMS4zMSwwIC0xNDcuNDUsLTg5LjU2NiAtMTQ3LjQ1LC0xNzIuNzc3IDAsLTEwMy44NTE2IDU3LjM2LC0xNzAuOTQ5MjggMTQ2LjEzLC0xNzAuOTQ5MjggNjMuNTMsMCAxMTEuOTYsMzIuMDk3NjggMTMyLjg4LDg4LjE3OTY4IDEuMTIsMy4yMDcgMC43Nyw2LjY4NzUgLTAuOTgsOS44MDg2IC0yLjEzLDMuNzg5IC02LjE3LDYuNjQ4IC0xMC45NSw3LjY5OSBsIC0yOC4xMiw1LjM3OSBjIC03LjU1LDEuMTg0IC0xNi4yLC0zLjI4OSAtMTkuMDYsLTkuNzc3IC0xMy42NiwtMzEuMTYwNCAtMzguNTYsLTQ4Ljg0MDEgLTY5LjgxLC00OS43NjE5IC0zMC4wNywwLjkyOTcgLTU3LjY4LDE4Ljc5MjkgLTcwLjMzLDQ1LjQ4MDkgLTEwLjI4LDIxLjggLTExLjgsNDMuMjg5IC0xMS45Nyw2NS4xNCBsIDIwMy42MSwwLjA3IGMgNC4yNywwIDguNjksMS44NzkgMTEuODEsNS4wNCAyLjYxLDIuNjIxIDQuMDMsNS44NzggNCw5LjE0IC0wLjUsODAuODk5IC0zNy40NywxNjcuMzI4IC0xMzkuNzYsMTY3LjMyOCIgc3R5bGU9ImZpbGw6IzEwMGYwZDtmaWxsLW9wYWNpdHk6MTtmaWxsLXJ1bGU6bm9uemVybztzdHJva2U6bm9uZSIgaWQ9InBhdGg0NiIvPjxwYXRoIGQ9Im0gMjM2Ni42MiwxNzMuNzExIGMgMCwtMTkuMTYgLTMuNDcsLTExNC44MzIxIC03MS40NCwtMTE3LjI4MTMgLTIyLjc4LDAuODcxMSAtNDUuOCwxNC4yNjE3IC01OC42NiwzNC4wNTg2IC05LjQ3LDE0Ljk3MjcgLTE1LDM1LjY3MTcgLTE2LjQyLDYxLjI4MTcgbCAwLDU2LjI4OSBjIDEuMTEsNDMuMTIxIDMxLjQ2LDkwLjQ0MSA3NC44Niw5Mi4yNzMgNjguMiwtMi42OTEgNzEuNjYsLTEwNS45NDEgNzEuNjYsLTEyNi42MjEgeiBtIC02MC43OCwxNzYuMTggLTUuMzksMCBjIC0zMy42MywwIC02MC4wNiwtMTMuOTY5IC04MC4zNSwtNDIuNjAyIGwgLTAuMDMsMTMxLjkzIGMgMCw3LjQxIC03LjY1LDE0LjE2IC0xNi4xLDE0LjE2IGwgLTI5LjI4LDAgYyAtNy42NSwwIC0xNi4yMSwtNi4wNTkgLTE2LjIzLC0xNC4xNiBsIDAsLTQxMS44NDAxIGMgMC4wMywtNy40ODA1IDcuNjgsLTE0LjI3NzMgMTYuMTIsLTE0LjI3NzMgbCA4LjYsMC4wNDY4IGMgOC4xMiwwIDEzLjksNi41NDMgMTUuODUsMTIuNjIxMSBsIDkuMTYsMjkuMDcwMyBjIDIxLjI4LC0zMC4yMTg3IDUzLjMzLC00Ny45Njg3MSA4Ny42MywtNDcuOTY4NzEgbCA1LjI1LDAgYyA5MC4zNSwwIDEzMC43OSw4Ny44Nzg5MSAxMzAuNzksMTc0Ljk2ODkxIDAsNDMuMzUxIC0xMC42OSw4NC44MDEgLTI5LjMyLDExMy43MTkgLTIxLjUzLDMzLjUxMSAtNTguNTksNTQuMzMyIC05Ni43LDU0LjMzMiIgc3R5bGU9ImZpbGw6IzEwMGYwZDtmaWxsLW9wYWNpdHk6MTtmaWxsLXJ1bGU6bm9uemVybztzdHJva2U6bm9uZSIgaWQ9InBhdGg0OCIvPjxwYXRoIGQ9Im0gMjc1Mi40NywxODIuOTggYyAtMTkuMDQsMTMuNjggLTQxLjkzLDE4LjI1IC02NC44NiwyMi44MjkgbCAtNDMuOTcsOC4xNTIgYyAtMzEuNTUsNS4xODcgLTQ5LjgxLDEzLjY0OCAtNDkuODEsNDEuNDg4IDAsMjkuNDMgMzAuNSw0MC42OCA1Ni4zNiw0MS4zNzkgMzEuNTgsLTAuNzk3IDU1LjMzLC0xNC44ODcgNjYuODYsLTM5LjY2OCAyLjc0LC01Ljg0IDguODEsLTkuNzY5IDE1LjEyLC05Ljc2OSAxLjA4LDAgMi4xOCwwLjEyMSAzLjIyLDAuMzQ3IGwgMjcuNDQsNi4wNjMgYyA0LjQ4LDAuOTg4IDguNjYsNC4wNTggMTAuOSw4LjA1MSAxLjc5LDMuMTY4IDIuMTgsNi42MjggMS4xMSw5LjcxOCAtMTYuNzksNDguOTEgLTU5LjQyLDc0Ljc1OCAtMTIzLjkxLDc0Ljc1OCAtNTguMjcsLTAuMTI5IC0xMjAuNTQsLTI2LjAzOSAtMTIwLjU0LC05OC40MDYgMCwtNDkuNDYxIDMxLjA4LC04MC44NzEgOTIuNDQsLTkzLjM3MSBsIDQ5LjIyLC05LjM3OSBjIDI3LjAyLC01LjE3MiA1NC42NSwtMTQuMzcxIDU0LjY1LC00My4zODMgMCwtNDIuOTQ5MiAtNDkuOTgsLTQ3LjMyODEgLTY1LjA5LC00Ny42NDA2IC0zMy45LDAuNzMwNSAtNzIuMjgsMTUuODUxNiAtODEuNiw0Ny44NzE2IC0xLjg3LDcuMDM5IC0xMC43MywxMi4wMTkgLTE4LjUsMTAuNDAyIGwgLTI4LjcsLTUuOTIyIGMgLTQuMzIsLTAuOTEgLTguMjcsLTMuNzE5IC0xMC41NywtNy41MTE3IC0xLjkzLC0zLjE2MDIgLTIuNDgsLTYuNjk5MiAtMS41OSwtOS45Mjk3IDE0LjgxLC01My4xMjg5IDY2LjEsLTg1LjE2Nzk3IDEzNy4yLC04NS43MDcwNCBsIDEuNTgsLTAuMDExNzIgYyA2My41LDAgMTMxLjM1LDI3LjE5MTQ2IDEzMS4zNSwxMDMuNDY5MTYgMCwzMS4wNSAtMTMuOTcsNTguODEyIC0zOC4zMSw3Ni4xNzEiIHN0eWxlPSJmaWxsOiMxMDBmMGQ7ZmlsbC1vcGFjaXR5OjE7ZmlsbC1ydWxlOm5vbnplcm87c3Ryb2tlOm5vbmUiIGlkPSJwYXRoNTAiLz48cGF0aCBkPSJtIDMwNDIuNzUsMjExLjU3IC0xNTAuMDIsMCBjIDMuNDMsNDIuMTI5IDMwLjc2LDg1Ljc4OSA3Ny4wNiw4Ny4zOTEgNDkuMjUsLTEuNTYzIDcxLjgyLC00NC4xOTkgNzIuOTYsLTg3LjM5MSB6IG0gLTczLjA0LDEzNS4xMjkgYyAtMTAxLjMzLDAgLTE0Ny40OCwtODkuNTcgLTE0Ny40OCwtMTcyLjc3NyAwLC0xMDMuODQzOSA1Ny4zNywtMTcwLjkzMzcyIDE0Ni4xNSwtMTcwLjkzMzcyIDYzLjU0LDAgMTExLjk3LDMyLjEwMTUyIDEzMi45MSw4OC4xNzE5MiAxLjExLDMuMjEwOSAwLjc2LDYuNjk5MiAtMSw5LjgyNzggLTIuMTMsMy43OTMgLTYuMTgsNi42NTMgLTEwLjk1LDcuNjg0IGwgLTI4LjE2LDUuMzc5IGMgLTYuNTksMS4wNyAtMTUuNzgsLTIuMzQgLTE5LjAyLC05Ljc4OSAtMTMuNjcsLTMxLjE0MDkgLTM4LjU4LC00OC44MjA2IC02OS44LC00OS43ODE1IC0zMC4xLDAuOTYwOSAtNTcuNywxOC44MjAzIC03MC4zLDQ1LjUgLTEwLjMsMjEuNzQ5NSAtMTEuODMsNDMuMjU3NSAtMTEuOTgsNjUuMTYwNSBsIDIwMy41OSwwLjA1IGMgNC4yNCwwIDguNjMsMS44NjggMTEuNzUsNS4wMDggMi42MiwyLjYzMyA0LjA0LDUuODkxIDQuMDEsOS4xNzIgLTAuNDcsODAuODkxIC0zNy40MSwxNjcuMzI4IC0xMzkuNzIsMTY3LjMyOCIgc3R5bGU9ImZpbGw6IzEwMGYwZDtmaWxsLW9wYWNpdHk6MTtmaWxsLXJ1bGU6bm9uemVybztzdHJva2U6bm9uZSIgaWQ9InBhdGg1MiIvPjxwYXRoIGQ9Im0gMzMwMS42OSwzNDIuODkxIGMgLTMuOTcsMC40MzcgLTcuNzksMC42NDggLTExLjUsMC42NDggLTM0LjE3LDAgLTYxLjkyLC0xOC41NzggLTgxLjE4LC01NC4wNyBsIDAuMDcsMzEuMDgyIGMgLTAuMDMsNy41MjcgLTcuNTQsMTQuMTQgLTE2LjA3LDE0LjE0IGwgLTI1LjQzLDAgYyAtOC4zNCwwIC0xNS43LC02LjY0IC0xNS43NiwtMTQuMjYxIEwgMzE1MS43OCwxOC41IGMgMCwtNy41NzgxIDcuMzYsLTE0LjIzMDQ3IDE1Ljc2LC0xNC4yMzA0NyBsIDI5LjY3LDAuMDExNzIgYyA3LjcyLDAgMTYuNDEsNi4wNTg1NSAxNi40OCwxNC4yMTg3NSBsIDAuMDIsMTUyLjIxOSBjIDAsMjUuMTAxIDIuMzQsNDQuMDExIDE0LjMzLDY2LjM4MyAxNy4xMywzMS44NjcgNDEuMDUsNDcuNSA3My4xMyw0Ny43NSA4LjA0LDAuMDU4IDE1LjEsNy4wNzggMTUuMSwxNS4wMjcgbCAwLDI4LjI0MiBjIDAsNy4zOTEgLTYuNDEsMTMuODc5IC0xNC41OCwxNC43NyIgc3R5bGU9ImZpbGw6IzEwMGYwZDtmaWxsLW9wYWNpdHk6MTtmaWxsLXJ1bGU6bm9uemVybztzdHJva2U6bm9uZSIgaWQ9InBhdGg1NCIvPjxwYXRoIGQ9Im0gMzYxMy4yLDM0OC44MiAtMjMuNDMsLTAuMDExIGMgLTcuMzQsMCAtMTYuNzUsLTUuMjcgLTE5LjAzLC0xMyBMIDM0OTQuNzksOTcuMTAxNiAzNDE3LjIzLDMzNS41NyBjIC0yLjI5LDcuOTE4IC0xMS43MiwxMy4yMzkgLTE5LjEsMTMuMjM5IGwgLTMzLjQ2LDAuMDMxIGMgLTYuMTQsMCAtMTIuMDgsLTIuNzM4IC0xNS4xMiwtNi45NjkgLTIuMDQsLTIuODMyIC0yLjYsLTYuMDQzIC0xLjU5LC05LjAzOSBMIDM0NTQuMTEsMTcuOTQxNCBjIDIuMDQsLTYuMjMwNSA3LjQ1LC0xMy41MTE3MSAxNi4wMSwtMTMuNTExNzEgbCA0MC40OSwwIGMgNy40MywwIDEzLjUyLDUuMDU4NTkgMTYuMzEsMTMuNTM5MTEgTCAzNjI5Ljg4LDMzMi43MyBjIDEuMDMsMi45ODkgMC40OCw2LjIxMSAtMS41NSw5LjA1MSAtMy4wNiw0LjI3IC04Ljk5LDcuMDM5IC0xNS4xMyw3LjAzOSIgc3R5bGU9ImZpbGw6IzEwMGYwZDtmaWxsLW9wYWNpdHk6MTtmaWxsLXJ1bGU6bm9uemVybztzdHJva2U6bm9uZSIgaWQ9InBhdGg1NiIvPjxwYXRoIGQ9Im0gMzY5MC4xOCw0NjkuODU5IGMgLTIxLjU4LDAgLTM5LjEzLC0xNy41OTcgLTM5LjEzLC0zOS4yNSAwLC0yMS42NDggMTcuNTUsLTM5LjIzOCAzOS4xMywtMzkuMjM4IDIxLjU5LDAgMzkuMTYsMTcuNTkgMzkuMTYsMzkuMjM4IDAsMjEuNjUzIC0xNy41NywzOS4yNSAtMzkuMTYsMzkuMjUiIHN0eWxlPSJmaWxsOiMxMDBmMGQ7ZmlsbC1vcGFjaXR5OjE7ZmlsbC1ydWxlOm5vbnplcm87c3Ryb2tlOm5vbmUiIGlkPSJwYXRoNTgiLz48cGF0aCBkPSJtIDM3MDYuMjksMzUwLjczOCAtMzIuMTMsMC4wMzIgYyAtOC43NCwwIC0xNi43LC03LjA3MSAtMTYuNywtMTQuODIxIEwgMzY1Ny4zLDE1LjM1OTQgYyAwLC0zLjg3ODkgMiwtNy43MzA0OSA1LjQ2LC0xMC41ODk4NyAzLjE3LC0yLjU5NzY1IDcuMjIsLTQuMDk3NjU1IDExLjI5LC00LjA5NzY1NSBsIDMyLjM2LC0wLjA1MDc4MSAwLjAyLDAgYyA4Ljg3LDAuMDc4MTI1IDE2LjY2LDYuOTU3MDM2IDE2LjY2LDE0LjcxODcwNiBsIDAsMzIwLjYwOTIgYyAwLDcuODc5IC03Ljg2LDE0Ljc4OSAtMTYuOCwxNC43ODkiIHN0eWxlPSJmaWxsOiMxMDBmMGQ7ZmlsbC1vcGFjaXR5OjE7ZmlsbC1ydWxlOm5vbnplcm87c3Ryb2tlOm5vbmUiIGlkPSJwYXRoNjAiLz48cGF0aCBkPSJtIDQwMDYuNTYsMTMzLjM0IC0yNi44MywtMC4xMDIgYyAtNy40OSwwIC0xMy43NywtNC41IC0xNi41NiwtMTIuMzE2IC05LjgsLTQyLjI4MTQgLTMyLC02NC4xOTE1IC02NS42NiwtNjUuMTYwMyAtNjUuNTYsMS45NDkyIC03MC42NSw5My4zMjgzIC03MC42NSwxMjEuMjg5MyAwLDU1Ljc1OCAxOS4zMSwxMTUuOTI5IDczLjIyLDExNy41MTkgMzIuNTQsLTEgNTYuMjEsLTI0LjMzMiA2My4zMSwtNjIuMzUxIDEuMzQsLTcuNzU4IDcuMywtMTMuNjI5IDE1LjQ0LC0xNC42NDkgbCAyOC43MSwtMC4yODEgYyA4LjU4LDAuOTMgMTUuMzEsNy40MjIgMTUuMjUsMTUuNDczIC0xMC4xNiw2OC43MDcgLTU3Ljc3LDExMy4xMTcgLTEyMS40LDExMy4xMTcgbCAtMi4yLC0wLjA1OSAtMi40OSwwLjA1OSBjIC05Mi41NCwwIC0xMzMuOTcsLTg2LjM2NyAtMTMzLjk3LC0xNzEuOTU3IDAsLTc4LjQ3MjggMzQuOTMsLTE3MC4xMDE2OSAxMzMuNDUsLTE3MC4xMDE2OSBsIDQuNzIsMCBjIDYyLjA0LDAgMTA4Ljg3LDQzLjQ4ODI5IDEyMi4yOCwxMTMuOTk5NjkgMC4zLDMuMzYgLTAuODYsNi43MTkgLTMuMjQsOS40NSAtMy4wOCwzLjUzOSAtNy45OSw1LjgwOCAtMTMuMzgsNi4wNyIgc3R5bGU9ImZpbGw6IzEwMGYwZDtmaWxsLW9wYWNpdHk6MTtmaWxsLXJ1bGU6bm9uemVybztzdHJva2U6bm9uZSIgaWQ9InBhdGg2MiIvPjxwYXRoIGQ9Im0gNDI3MS41NCwyMTEuNTcgLTE1MC4wNCwwIGMgMy40Myw0Mi4xNDEgMzAuNzcsODUuNzg5IDc3LjEsODcuMzkxIDQ5LjI2LC0xLjU2MyA3MS44MiwtNDQuMTk5IDcyLjk0LC04Ny4zOTEgeiBtIC03My4wNCwxMzUuMTI5IGMgLTEwMS4zMiwwIC0xNDcuNDYsLTg5LjU3IC0xNDcuNDYsLTE3Mi43NzcgMCwtMTAzLjg0MzkgNTcuMzcsLTE3MC45MzM3MiAxNDYuMTUsLTE3MC45MzM3MiA2My41MSwwIDExMS45MiwzMi4wODIwMiAxMzIuODgsODguMTYwMTIgMS4wOSwzLjIzMDUgMC43Myw2LjczMDUgLTEuMDIsOS44Mzk2IC0yLjE2LDMuODIxIC02LjA5LDYuNjE0IC0xMC45NCw3LjY4NCBsIC0yOC4xMiw1LjM3OSBjIC02LjYyLDEuMDcgLTE1Ljc4LC0yLjM0IC0xOS4wMiwtOS43ODkgLTEzLjcxLC0zMS4xNDA5IC0zOC42MywtNDguODIwNiAtNjkuODQsLTQ5Ljc5MzIgLTMwLjA5LDAuOTcyNiAtNTcuNjgsMTguODMyIC03MC4yOCw0NS41MTE3IC0xMC4zMSwyMS43ODE1IC0xMS44NCw0My4yODk1IC0xMiw2NS4xNjA1IGwgMjAzLjYxLDAuMDMxIGMgNC4yOCwwIDguNywxLjg4NyAxMS44Myw1LjA1OCAyLjYsMi42NDkgNCw1LjkxMSAzLjk1LDkuMTQxIC0wLjQ3LDgwLjg5MSAtMzcuNDIsMTY3LjMyOCAtMTM5Ljc0LDE2Ny4zMjgiIHN0eWxlPSJmaWxsOiMxMDBmMGQ7ZmlsbC1vcGFjaXR5OjE7ZmlsbC1ydWxlOm5vbnplcm87c3Ryb2tlOm5vbmUiIGlkPSJwYXRoNjQiLz48cGF0aCBkPSJtIDQ1OTMuMzEsMTgyLjk4IGMgLTE5LjA3LDEzLjY5MiAtNDEuOTksMTguMjU4IC02NC44OCwyMi44MjkgbCAtNDMuOTcsOC4xNTIgYyAtMzEuNTIsNS4xODcgLTQ5Ljc3LDEzLjY0OCAtNDkuNzcsNDEuNDg4IDAsMzcuOTYxIDQ3LjExLDQxLjEzMyA1Ni4zLDQxLjM3OSAzMS42MSwtMC43OTcgNTUuMzYsLTE0Ljg4NyA2Ni44NywtMzkuNjggMi43NiwtNS44MzkgOC44NSwtOS43NTcgMTUuMTcsLTkuNzU3IDEuMDksMCAyLjE4LDAuMTIxIDMuMjQsMC4zNDcgbCAyNy40Miw2LjA2MyBjIDQuNDgsMC45ODggOC42NSw0LjA3IDEwLjg5LDguMDU4IDEuNzgsMy4xNzIgMi4xNyw2LjYyMSAxLjEsOS43MTEgLTE2Ljc3LDQ4LjkxIC01OS40MSw3NC43NTggLTEyMy45Myw3NC43NTggLTU4LjI1LC0wLjEyOSAtMTIwLjUsLTI2LjAzOSAtMTIwLjUsLTk4LjQwNiAwLC00OS40NzMgMzEuMDcsLTgwLjg4MyA5Mi40MiwtOTMuMzcxIGwgNDkuMjQsLTkuMzc5IGMgMjcuMDIsLTUuMTcyIDU0LjY1LC0xNC4zNzEgNTQuNjUsLTQzLjM4MyAwLC00Mi45NDkyIC00OS45OCwtNDcuMzI4MSAtNjUuMDksLTQ3LjY0MDYgLTMxLjQzLDAuNjcxOSAtNzEuNjYsMTMuNjUyNCAtODEuNTksNDcuODMxNiAtMS44Miw3LjA3OSAtMTAuNjcsMTIuMDUxIC0xOC41OCwxMC40NDIgbCAtMjguNjUsLTUuOTIyIGMgLTQuMzQsLTAuOTIyIC04LjMsLTMuNzUgLTEwLjYsLTcuNTUwOCAtMS45MSwtMy4xNjc5IC0yLjQ2LC02LjY3OTcgLTEuNTYsLTkuODkwNiAxNC43NywtNTMuMTI4OSA2Ni4wNSwtODUuMTY3OTcgMTM3LjE2LC04NS43MDcwNCBsIDEuNTgsLTAuMDExNzIgYyA2My41MSwwIDEzMS4zNywyNy4xOTE0NiAxMzEuMzcsMTAzLjQ2OTE2IDAsMzEuMDcgLTEzLjk2LDU4LjgzOSAtMzguMjksNzYuMTcxIiBzdHlsZT0iZmlsbDojMTAwZjBkO2ZpbGwtb3BhY2l0eToxO2ZpbGwtcnVsZTpub256ZXJvO3N0cm9rZTpub25lIiBpZD0icGF0aDY2Ii8+PHBhdGggZD0ibSAzMjg3LjE1LDk2Ny45OCAwLDcyLjggYyAwLjA0LDExLjA0IDguNDIsMTguNDUgMTguNDgsMTguNDQgbCAzMjYuMTUsMC4wMSBjIDEwLjQxLDAgMTguODEsLTcuNTkgMTguODEsLTE4LjM3IGwgMCwtNjIuNDMgYyAtMC4xLC0xMC40NSAtOC45MywtMjQuMTE0IC0yNC41NywtNDUuODEzIEwgMzQ1Ny4wOSw2OTEuNDEgYyA2Mi42OCwxLjQ4OCAxMjkuMDQsLTcuODk4IDE4NiwtMzkuOTIyIDEyLjg3LC03LjIxOCAxNi4yOSwtMTcuOTI5IDE3LjM0LC0yOC4zODYgbCAwLC03Ny42OCBjIDAsLTEwLjcxMSAtMTEuNzIsLTIzLjA5IC0yNC4wMiwtMTYuNjQxIC0xMDAuMzksNTIuNTk4IC0yMzMuNjIsNTguMzQgLTM0NC42NSwtMC42MDkgLTExLjMzLC02LjA1MSAtMjMuMjEsNi4xMzcgLTIzLjIxLDE2Ljg0OCBsIDAsNzMuODEyIGMgMCwxMS43NzcgMC4yNCwzMi4wMDggMTIuMTMsNTAuMDI3IGwgMTk1Ljc1LDI4MC43ODIgLTE3MC40MSwwLjAzOSBjIC0xMC40MywwIC0xOC43Nyw3LjQyMiAtMTguODcsMTguMyIgc3R5bGU9ImZpbGw6IzEwMGYwZDtmaWxsLW9wYWNpdHk6MTtmaWxsLXJ1bGU6ZXZlbm9kZDtzdHJva2U6bm9uZSIgaWQ9InBhdGg2OCIvPjxwYXRoIGQ9Im0gMjA5Ny40NSw1MTMuNDYxIC05OS4yNSwwIGMgLTkuNDMsMC42MTcgLTE2Ljk4LDcuNzMgLTE3LjczLDE2LjgwMSBsIDAuMDcsNTA5LjI3OCBjIDAsMTAuMTkgOC41OCwxOC4zMyAxOS4xNCwxOC4zMyBsIDkyLjQxLDAuMDUgYyA5LjY4LC0wLjU0IDE3LjQyLC03Ljg0IDE4LjA4LC0xNy4xIGwgMCwtNjYuNTQzIDEuODQsMCBjIDI0LjA2LDY0LjMzMyA2OS40NSw5NC4yOTMgMTMwLjU3LDk0LjI5MyA2Mi4wNSwwIDEwMC45NiwtMjkuOTYgMTI4Ljc1LC05NC4yOTMgMjQuMSw2NC4zMzMgNzguNzMsOTQuMjkzIDEzNy4xMyw5NC4yOTMgNDEuNjgsMCA4Ny4wMSwtMTcuMTIgMTE0LjgsLTU1LjY4IDMxLjQ5LC00Mi44OSAyNSwtMTA1LjAwNyAyNSwtMTU5LjY4NyBsIC0wLjA2LC0zMjEuMzk0IGMgMCwtMTAuMTYxIC04LjU3LC0xOC4zNDggLTE5LjEyLC0xOC4zNDggbCAtOTkuMSwwIGMgLTkuOTgsMC42MTcgLTE3LjgzLDguNTc4IC0xNy44MywxOC4zMDEgbCAwLDI3MC4wMDggYyAwLDIxLjQyMSAxLjgzLDc1LjAyNyAtMi43OSw5NS4zNzEgLTcuNDMsMzQuMzI0IC0yOS42Nyw0My45MTQgLTU4LjM0LDQzLjkxNCAtMjQuMTEsMCAtNDkuMTMsLTE2LjA3NSAtNTkuMzIsLTQxLjczOSAtMTAuMTgsLTI1Ljc2MSAtOS4yNCwtNjguNjI1IC05LjI0LC05Ny41NDYgbCAwLC0yNjkuOTYxIGMgMCwtMTAuMTYxIC04LjU3LC0xOC4zNDggLTE5LjE0LC0xOC4zNDggbCAtOTkuMTIsMCBjIC05LjkzLDAuNjE3IC0xNy44LDguNTc4IC0xNy44LDE4LjMwMSBsIC0wLjEzLDI3MC4wMDggYyAwLDU2LjgwNCA5LjI5LDE0MC4zNTkgLTYxLjA5LDE0MC4zNTkgLTcxLjMyLDAgLTY4LjU0LC04MS40MjYgLTY4LjU0LC0xNDAuMzU5IGwgLTAuMDYsLTI2OS45NjEgYyAwLjA0LC0xMC4xNjEgLTguNTQsLTE4LjM0OCAtMTkuMTMsLTE4LjM0OCIgc3R5bGU9ImZpbGw6IzEwMGYwZDtmaWxsLW9wYWNpdHk6MTtmaWxsLXJ1bGU6ZXZlbm9kZDtzdHJva2U6bm9uZSIgaWQ9InBhdGg3MCIvPjxwYXRoIGQ9Im0gMzkzMi4yOSw5NjQuNjU2IGMgLTczLjIxLDAgLTc3LjgyLC05OS42NTYgLTc3LjgyLC0xNjEuODM2IDAsLTYyLjE0NCAtMC45MiwtMTk1LjAxOSA3Ni45MiwtMTk1LjAxOSA3Ni44OSwwIDgwLjU4LDEwNy4xNjggODAuNTgsMTcyLjUzMSAwLDQyLjg1OSAtMS44Myw5NC4yODUgLTE0LjgsMTM1LjAxMiAtMTEuMTUsMzUuMzc5IC0zMy4zNiw0OS4zMTIgLTY0Ljg4LDQ5LjMxMiB6IG0gLTAuOSwxMDMuOTE0IGMgMTQ3LjI2LDAgMjI2LjkzLC0xMjYuNDQxIDIyNi45MywtMjg3LjEzMiAwLC0xNTUuNDI2IC04OC4wMywtMjc4LjY3NiAtMjI2LjkzLC0yNzguNjc2IC0xNDQuNTEsMCAtMjIzLjI2LDEyNi40NzYgLTIyMy4yNiwyODQuMDA4IDAsMTU4LjYwMSA3OS42NCwyODEuOCAyMjMuMjYsMjgxLjgiIHN0eWxlPSJmaWxsOiMxMDBmMGQ7ZmlsbC1vcGFjaXR5OjE7ZmlsbC1ydWxlOmV2ZW5vZGQ7c3Ryb2tlOm5vbmUiIGlkPSJwYXRoNzIiLz48cGF0aCBkPSJtIDQzNDkuMzIsNTEzLjQ2MSAtOTguODcsMCBjIC05Ljk2LDAuNjE3IC0xNy44MSw4LjU3OCAtMTcuODEsMTguMzAxIGwgLTAuMTQsNTA5LjUwOCBjIDAuODIsOS4yOCA5LjA2LDE2LjYgMTkuMDIsMTYuNiBsIDkyLjA3LDAuMDUgYyA4LjY4LC0wLjQ4IDE1LjgsLTYuMzggMTcuNjIsLTE0LjI3IGwgMCwtNzcuOTI3IDEuODgsMCBjIDI3Ljc1LDY5LjY2NyA2Ni42OCwxMDIuODQ3IDEzNS4xOSwxMDIuODQ3IDQ0LjQ3LDAgODguMDMsLTE2LjAzIDExNS44LC01OS45OCBDIDQ2NDAsOTY3Ljg4MyA0NjQwLDg5OS4zMTYgNDY0MCw4NTAuMDEyIGwgMCwtMzIwLjQ5MiBjIC0xLjExLC05LjAzMiAtOS4xNiwtMTYuMDU5IC0xOC45NiwtMTYuMDU5IGwgLTk5LjUyLDAgYyAtOS4xOCwwLjU5OCAtMTYuNTYsNy4zNzkgLTE3LjY3LDE2LjA1OSBsIDAsMjc2LjUzNSBjIDAsNTUuNzIyIDYuNSwxMzcuMTg3IC02Mi4wNywxMzcuMTg3IC0yNC4wNywwIC00Ni4yNywtMTYuMTEzIC01Ny40LC00MC43MyAtMTMuOTEsLTMxLjA2NyAtMTUuNzUsLTYyLjE0MSAtMTUuNzUsLTk2LjQ1NyBsIDAsLTI3NC4yNDYgYyAtMC4xNywtMTAuMTYxIC04Ljc1LC0xOC4zNDggLTE5LjMxLC0xOC4zNDgiIHN0eWxlPSJmaWxsOiMxMDBmMGQ7ZmlsbC1vcGFjaXR5OjE7ZmlsbC1ydWxlOmV2ZW5vZGQ7c3Ryb2tlOm5vbmUiIGlkPSJwYXRoNzQiLz48cGF0aCBkPSJtIDMxMjcuMTksNTE0Ljc1IGMgLTYuNTgsLTUuODcxIC0xNiwtNi4yNjIgLTIzLjQyLC0yLjMwOSAtMzIuOTUsMjcuMzkxIC0zOC44Nyw0MC4wOSAtNTYuODgsNjYuMTQxIC01NC40NywtNTUuNDggLTkzLjA0LC03Mi4xMjEgLTE2My41NywtNzIuMTIxIC04My41NywwIC0xNDguNTMsNTEuNTU5IC0xNDguNTMsMTU0LjY2IDAsODAuNTI3IDQzLjYxLDEzNS4zMDUgMTA1LjgsMTYyLjE3MiA1My44NCwyMy42MzMgMTI5LjA0LDI3LjkzNyAxODYuNTgsMzQuNDAyIGwgMCwxMi44NzEgYyAwLDIzLjYxNCAxLjg1LDUxLjU1MSAtMTIuMDksNzEuOTQ2IC0xMi4wMywxOC4yNTggLTM1LjI0LDI1Ljc1OCAtNTUuNjksMjUuNzU4IC0zNy44NSwwIC03MS40OCwtMTkuNDAzIC03OS43NiwtNTkuNTk4IC0xLjY4LC04LjkyNiAtOC4yNCwtMTcuNzkzIC0xNy4yMywtMTguMjIzIGwgLTk2LjE1LDEwLjQxOCBjIC04LjE0LDEuODI4IC0xNy4xNSw4LjMyMSAtMTQuOCwyMC43MTUgMjIuMSwxMTYuNjk4IDEyNy40NiwxNTEuOTU4IDIyMS44OSwxNTEuOTU4IDQ4LjI0LDAgMTExLjM5LC0xMi44OCAxNDkuNDUsLTQ5LjM5IDQ4LjI1LC00NS4xMjcgNDMuNiwtMTA1LjI2MyA0My42LC0xNzAuNzgzIGwgMCwtMTU0LjU4NiBjIDAsLTQ2LjUgMTkuMzMsLTY2LjkxIDM3LjUsLTkxLjk3MiA2LjI5LC05LjAzOSA3LjcxLC0xOS43NSAtMC4zNywtMjYuMzc5IC0yMC4yNiwtMTYuOTgxIC01Ni4yNywtNDguMjMxIC03Ni4wNiwtNjUuODk5IGwgLTAuMjcsMC4yMTkgeiBtIC0xMDAuMDIsMjQxLjk2MSBjIDAsLTM4LjY3MiAwLjkyLC03MC45MjIgLTE4LjU4LC0xMDUuMjYyIC0xNS43OCwtMjcuOTQ5IC00MC44NiwtNDUuMTE3IC02OC43MSwtNDUuMTE3IC0zOC4wMiwwIC02MC4yOSwyOC45ODggLTYwLjI5LDcxLjk2OSAwLDg0LjQ5MiA3NS44Miw5OS44NzUgMTQ3LjU4LDk5Ljg3NSBsIDAsLTIxLjQ2NSIgc3R5bGU9ImZpbGw6IzEwMGYwZDtmaWxsLW9wYWNpdHk6MTtmaWxsLXJ1bGU6ZXZlbm9kZDtzdHJva2U6bm9uZSIgaWQ9InBhdGg3NiIvPjxwYXRoIGQ9Im0gMTgyNi40NSw1MTQuNzUgYyAtNi41NiwtNS44NzEgLTE2LjA1LC02LjI2MiAtMjMuNDcsLTIuMzA5IC0zMi45NSwyNy4zOTEgLTM4Ljg1LDQwLjA5IC01Ni44OCw2Ni4xNDEgLTU0LjQ0LC01NS40OCAtOTMuMDMsLTcyLjEyMSAtMTYzLjYsLTcyLjEyMSAtODMuNTQsMCAtMTQ4LjUyLDUxLjU1OSAtMTQ4LjUyLDE1NC42NiAwLDgwLjUyNyA0My42NSwxMzUuMzA1IDEwNS44NCwxNjIuMTcyIDUzLjg1LDIzLjYzMyAxMjkuMDQsMjcuOTM3IDE4Ni41OCwzNC40MDIgbCAwLDEyLjg3MSBjIDAsMjMuNjE0IDEuODcsNTEuNTUxIC0xMi4wNyw3MS45NDYgLTEyLjA2LDE4LjI1OCAtMzUuMjksMjUuNzU4IC01NS42OCwyNS43NTggLTM3Ljg1LDAgLTcxLjUyLC0xOS40MDMgLTc5Ljc3LC01OS41OTggLTEuNzIsLTguOTI2IC04LjI1LC0xNy43OTMgLTE3LjIzLC0xOC4yMjMgbCAtOTYuMTksMTAuNDE4IGMgLTguMTIsMS44MjggLTE3LjE0LDguMzIxIC0xNC44MSwyMC43MTUgMjIuMSwxMTYuNjk4IDEyNy40NywxNTEuOTU4IDIyMS44OSwxNTEuOTU4IDQ4LjMsMCAxMTEuNCwtMTIuODggMTQ5LjQ3LC00OS4zOSA0OC4yNywtNDUuMTI3IDQzLjYxLC0xMDUuMjYzIDQzLjYxLC0xNzAuNzgzIGwgMCwtMTU0LjU4NiBjIDAsLTQ2LjUgMTkuMzQsLTY2LjkxIDM3LjQ2LC05MS45NzIgNi4zMiwtOS4wMzkgNy43NSwtMTkuNzUgLTAuMzEsLTI2LjM3OSAtMjAuMjgsLTE2Ljk4MSAtNTYuMzEsLTQ4LjIzMSAtNzYuMDksLTY1Ljg5OSBsIC0wLjIzLDAuMjE5IHogTSAxNzI2LjQsNzU2LjcxMSBjIDAsLTM4LjY3MiAwLjkxLC03MC45MjIgLTE4LjU1LC0xMDUuMjYyIC0xNS43NywtMjcuOTQ5IC00MC44NywtNDUuMTE3IC02OC42OCwtNDUuMTE3IC0zOC4xLDAgLTYwLjM2LDI4Ljk4OCAtNjAuMzYsNzEuOTY5IDAsODQuNDkyIDc1LjgsOTkuODc1IDE0Ny41OSw5OS44NzUgbCAwLC0yMS40NjUiIHN0eWxlPSJmaWxsOiMxMDBmMGQ7ZmlsbC1vcGFjaXR5OjE7ZmlsbC1ydWxlOmV2ZW5vZGQ7c3Ryb2tlOm5vbmUiIGlkPSJwYXRoNzgiLz48L2c+PC9nPjwvc3ZnPg==;" parent="RAA4VYRwvk91mv3x0SY0-12" vertex="1">
                    <mxGeometry x="22.56800000000002" y="40.00324255812271" width="83.02446245563848" height="31.206513770189044" as="geometry"/>
                </mxCell>
                <mxCell id="RAA4VYRwvk91mv3x0SY0-36" value="" style="edgeStyle=orthogonalEdgeStyle;html=1;endArrow=block;elbow=vertical;startArrow=block;startFill=1;endFill=1;strokeColor=#545B64;rounded=0;exitX=1;exitY=0.5;exitDx=0;exitDy=0;entryX=-0.004;entryY=0.45;entryDx=0;entryDy=0;entryPerimeter=0;" parent="1" source="2" edge="1" target="4">
                    <mxGeometry width="100" relative="1" as="geometry">
                        <mxPoint x="220" y="265" as="sourcePoint"/>
                        <mxPoint x="350" y="265" as="targetPoint"/>
                    </mxGeometry>
                </mxCell>
                <mxCell id="3" value="" style="group" vertex="1" connectable="0" parent="1">
                    <mxGeometry x="64" y="202.06" width="157.82" height="123.87" as="geometry"/>
                </mxCell>
                <mxCell id="2" value="" style="rounded=1;whiteSpace=wrap;html=1;fillStyle=solid;fillColor=#FFFFFF;strokeColor=none;glass=0;shadow=0;" vertex="1" parent="3">
                    <mxGeometry y="3.8700000000000045" width="157.82" height="120" as="geometry"/>
                </mxCell>
                <mxCell id="RAA4VYRwvk91mv3x0SY0-34" value="" style="shape=image;verticalLabelPosition=bottom;labelBackgroundColor=default;verticalAlign=top;aspect=fixed;imageAspect=0;image=data:image/png,iVBORw0KGgoAAAANSUhEUgAAA2oAAAKzCAMAAABYsw5qAAAAGXRFWHRTb2Z0d2FyZQBBZG9iZSBJbWFnZVJlYWR5ccllPAAAADlQTFRFQEBAv7+/f39/7+/vEBAQn5+fYGBg39/fICAgMDAwz8/PcHBwj4+PUFBQr6+vgICA////AAAA////TZ7taQAAABN0Uk5T////////////////////////ALJ93AgAACRPSURBVHja7J3ZmqM2FAYRIHZo4/d/2PRMZnpsNgvQcgRVl/mSNAYKSUe/pOQJAB5IuAUAqAaAagCAagCoBoBqAIBqAKgGAKgGgGoAqAYAqAaAagCAagCoBoBqAIBqAKgGAKgGgGoAqAYAqAaAagCAagCoBoBqAIBqAKgGgGoAgGoAqAYAqAaAagCoBgCoBoBqAIBqAKgGgGoAgGoAqAYAqAaAagCoBgCoBoBqAIBqAKgGgGoAgGoAqAaAagCAagCoBgCoBoBqAKgGAKgGgGoAgGoAqAaAagCAagCoBgCoBoBqAKgGAKgGgGoAgGoAqAaAagCAagCoBoBqAIBqAKgGfsmUUl2apm0y4/ufplqphpuEanCYUulfdo1mVL+8U4rbhmqwoxXr0qQeD5L06UArh2qwTaPbJB8tUPepKrmfqAYL/cVvy0a75N++ZdxZVIMfVNrnoyPqQtO8oRp89xnTZHRNhW6odvdOo7vWbNa6tQM3HNXu2Zy19eiZnsYN1e7GUORjEOoO21ANz7AN1cAaKqxn2IZq96iDtNUohEQz5YZqFyXT9SiJvCAyiWoXpJHQcZxNuHU0bah2LYQ1aC8UZJNR7TojtDQfBZNoHhGqXaPnOEqnSulHolrsqGSMgbyl+o9qUQ/RqjEaCmRDNURDNlSDy4iGbKiGaMiGarBSDKnHaEE2VItHtGSMmZzSP6pFQVmMsZN3PEZUk06WjlegIomMalRDPMW1GLKhmlyaZLwQDNlQTWrfsR2vRcUeW6gmkaEaL0dPLxLVxDVp/XhFqEWimjC6fLwolEdQTRBlMl6XPOUBoxpNGg0bqjFKY8SGatwCq4XHfLwBCXNsqBa4SWvHe5Azx4ZqIWnq8Ta0PG5UC1cPGe9EzY6RqEY9xE8nkg0jUY3OI51IVLsqOh9vSM0UG6p5ph3vSc6aUVTzOkxLxtvCdDaqeRymVeONKXgBUM0TQz7emproCKp5oRvvTsUMG6p5oBiB4giqURDxBLPZqObYtBrL/ocFo6hG6ZFCJKpFb1qOYS+uUYhENUcoTKPoj2oe0MiFa6iGabiGapiGa6gGmIZrqIZpcQRHCGmhGqb5CUTSrqEaptGHRDVMwzVUA0zDNVQLwIBKuIZqHiD3aOQaLwqqYRo5f1SLgBLTcA3VPMBKUHNYK4pqJ8C0HbAHAqodhh17dsHePqh2kBR7iEOimgeYuiYOiWpeyvyow/QaqvkoPlLmp+SPapT5KUOiGsXHm0NpBNV2wREYh8uQlEZQjZIIpRFUoyRyITibHtXMb5HwdqP4+qYVe5UDbxCqmSE6JZJ/lY8/ZFrmaR15yTuEaiYoyaZ9ZY9XZJZvGK6hWuwDtVw9JshcuspwDdUM6CXneR+POFwj5I9qH5E8ozY8FhDZ32V2DdU+IXkvkfaxSCvxWnteJVTbRnD0Mc+WVZM5uOx4l1At1jr/1+MRUbNGxR/VNruPkuv85ZpqpcjL5T1DtTi7j2P/WEVm0ZQuJKpF2X0c1bpqMvc6pwuJalF2H6vHBhVdSFSj+2irO7almtDJQI1qsITo5aBrlf4/9X6pF41qMEf29vzFYxOh+zP0qAZzesmmjc22alKHmQrVYIropTNj8viA0HFmhWowpRKtmv6kmtStmFNUg3dk78+ffzLtIXWV3a0n11AtuprIevxReBByvPd+x6i2gPAdVsvPqpVSr12hGsRSE9mKP/5D6gZaNarByz2RrZoyUW2QevUa1eAvwk9Sqx5GSK2h3vfUNVSLrNC/HX/8x5fU609RDf5H+FkY2/FH8UHIG0chUW2C9B36i4chBc0aqolG+unyjalqcuuoJaqB/EYteRgjdsFdgWogv1HT5qppmjVUo1FzF3+UH4S8a7OGalE1al87VBMbhLxps4ZqMTVqJvHHCIKQ92zWUC2mRq1/7CKhWUM1GrVDDPtUk1sYaVGNRu0C8Uf5QchbRkZQ7QXh6UfT+GMEQcg7RkZQ7R/CI/3jmO1VTW5h5IbNGqrF06gVj93IXU+uUe2+KOmNWrNfNbm/qUK1+9ILN61+HEBuS61Q7a6U0hs1fUQ1uePPBNXuSivctK34YxZhEPJ209io9gfx09ftRqGxi7Ew0qIalf7Y4o9tFWW9H9XuSS3ctK34Y761YZ3cIKRGtTvSSG/Uhs3SRxFjYaRGtTsifO/wzfhjsh0kkVvvL1HthkgvinQfRmNdjEHIFtUoisQUf/z60OpRGEE1QUhPihQfAyEqxnr/gGp3Q3xSpPl4EEYfYxCyR7W7IXzz8M34Y/953k1uYSRDNSbVYok//jTIG5tpyf2SaFSj/xhL/PHLYDpAbuisR7V7IT1p3BqtkhliLIyUqHYrpC+/Lo1OB90ojMjNwnSodiekh7ISg6LIByPFBiFrVKP/GEX88W2U+RVjEDJDNeqPMcQfv0z/RbGFEY1q1B+l8GW8dYiOMAjZo9p9kD5/nRkVRT4M6kp6kKgW/hbEG3/szUuVYlOeA6rdhUx4o6Z2NFVthEHIAtXuwhBv/PFrT6xE6uRhjmp3Qfj6a73LHh1hELJBtZsgOyqSmxdFPhRGxAYhU1S7B8KjIu1jX6WjjC8ImaAapX7Z8cdyp5piPyoZqt0C2VsdJHvPKdzqcEqd1RhQ7RbI3ipr2F1S1PEFIVtUuwOyD1XbSjUO+ycHhH5WalS7A7JPmv967I9/bOz4I3UJQ4ZqDNXkxh/LA0EuqUHIAdUYqsmNP34dmYkT+mFJUY1ZNbHxx42cld49vmNmDdWcI3oD8fpxSJo6viAkql0f0QFI/TjWFWyiC0I2qHZ5JO91kGcHCxwbQzyhK4Y6VLs8scYfv446KrMZL1Dt6oiewC4Pj7m62IKQNapdHclZ4+RxuJK4FTKR2WVGNaoi8RVFPswSyKy5KlSjKiIx/vgx9VHEFoTsUI2qiMT44+dNHbPIgpAtql0byVmR8tREdBdZEDJBtWsjeLOs4nEqXlU94gpC5qh2bQSvoFEnXVGRBSEzVLs0clfQnCqKfGoVJQYhFapRgBRX6Tc76aKM66iMDtUoQEqLPxo2Sl9xBSFTVLsyck9nOVkU+dQFFThzn6DalZGbgCwtFBCHqI7KqFHtyohNQCYPC9NifVxBSFSj1h9lUeRD0ygwCFmiGrV+UZX+HZX6r6iOylCoduXfHmH8cbBjrLwg5IBqF0bqxnSlpVTVEFMQMkU1ptUkVfp3KbJVXUlQDdW8IfUQbPWwFfQoIwpCJqjGtFqcRZFftBEFIVEN1SRV+ne2RfkjniBkhWrXReYM9mb8sbenrbjuM6pdF5kz2NaKIp8KIwWqodqtVWusdvrKeIKQJapdFpE70yUPq6WMNp4gpEK16/70ixdFPhVGNKqh2n1V21Lj0P47OpogJKqhmpT446EeXzyFkRTVLovE3Wy24o/H3GhiCUKi2nURaFr/2ObA8KqIJQiJaqgmJP74/5lNu5virSlxjWqodk/VqsdHst0tkY4kCIlqqOaP7mHA3lWddSRByBbVUE1E/PFlem1nkT6SwkiCaqgmIf74NmCrrf1vC1RDtRuq1hiq9sh6W42lQjVUc464w9WShzm7BllxFEZQ7bKIWxmqd6j2UDsGbFUUQUhUQzUJ8ceFisaOAZuKIQiJaqgmIf64JIl5SSOKwgiqoZqI+OO5zl8WQb0f1VBNRvxxsepv2vvrIghCohrFfiHxx8VOpOGALYbCCKqhmpT445mYlpJf70c1VJMTf1xslIw6kYX8ICSqoZqg+OPxdTXyCyMFqqGaoPjj4ZjWl+U9S+zDIhpUExV/PNoF3BoLKlRDtbuoVj/OYbCuZpBeGEG16yJobzZ9UjWDdTVb83YdqqGa058eR/yxtBTTKoUHIVEN1dzTbu5I15tVJz81TV/Cg5BsuYpqYeOP2fdIzqxo8mFdzVZhpEE1VHNIL8W0/lNjlQ82YlqD7CAkql0XMYc+DZ9PnzFcYVMcNVpAELJBNVQLGX/8O+dVmA3Y9NF+avjCyBPVLouUA3o7o3aqLk/HtL5EByFR7bpIWbCWPYxOrM7NltlsbH+c2zz71/qEB6qhWsj4Y2fc/Jmsq9GCg5AJql0XIYn2xvxI3uJkTCsRHIREtSsjP/44ff/r7FxMq5QbhGxR7cKICEHqXcX73Gw2e21dTSs3CJmi2pV/u/T4Y3Y8mdzt/mtZ4E8OqqFauPhjt7uM8immpcUGIRWqXRgJc9jlY/fwyXDAtrj9cSI2CFmiGqoFiz+uFQUrwwFbsVPtOuSdeKIaE2vB4o+rPbrccMCm93U/QwYhK1S7MuGXjlSPg3WK9uj2x5tbcwUsySaoxsRasPjjZvU9yQ7GtLTFY7aZVkM1Q4JvX5M9Ds8pGw7YZvrUMoOQKapR7Q8Vf/w0kjRcLzrb/rgRGYRUqEYJ0uX79Tg1zWW4XrQxD1IO1PpRzQmB1x7Xj5PhDcMNft5jWpuFkWBd6ieqUe0PFH80iiQabvDzvvBTCwxCJqhGCdJh/PFEUWTvgO11XU0tMAhZoBolyEDxR+MG13C96GtMS8kLQnaodnGCLj0uH1ZeecMNfl5iWoW8IKRCNUqQ7oYnD0sdOcMNfl7GYZm4IGSGatRFwsQfd5UnDDf4+beuppMWhKyeqHZxAi6H3D78eucg0nDA9nf7482/HSII2aMadRFnfFkpihjlTuZDQCUsCJmiGnWRMPHH/XVAw/Wif2JahbAgpEK1yxNs75riYXl2y3CDnz8xrUzWURlPVKMuEiT+eOwDYLhe9Pe6mk5UELJGtRsgMf54NIloOmBrPxRGvA9gW1S7w+8XGH883NSaDtiGfLNV9X5UxoBqNyDMJHZuuSjyM4NgOmCre0lByBLVGKyFiD+eedNNN/jJ+lJOELJ6ohqDtRDxx86dxa+yyTkqo0A1Bmsh4o9nqxKGG/xs4jcIqVGNwVqI+OPpJsV0wCYmCJmhGoO1EPHH8wMl0/WiG71Ln0HI+olq98B/vPbr4br893XWNZ9ByBbVboL/GGTmrijyE5U/OWDzGYRUqHYTvC/QKh4eohr1yQGbv2pR/kS1m+A9ya4ePursJwds/oKQPardBs9L/F0XRX7oTrnmLQipUe02eF4LqR++MlHFmQGbtyBkiWq3we8mUbmHosjPgK08Ue+n1I9q1vG6aKTw2W0z3eAnYBCyQzV6kAHij8pvd/Xh91ru3X9EtaffwEjiuyUpZBdG7tN/RLVfeAyMaO/jozqTHITsUI0eZIBKv5tNhfJGcBCyRDVqkP7jj866bFpsYeRG/UdU81uDLMMUIgqpQcgO1ehBBnjlHbYix9aLJvQfUS3SHqQKNjY6tF7UeWHkVm8fqv3GTw6yCvhi51pgvV+j2u3ws6G4DrqhRysuCJlnqHY7vCT+tuOP7jux+wdsjgsjxRPV7oePxF8RvLTeyKr3K1S7IT6WQpbBJ4x3rxd1mlmrnqjG1Jr/+KOnfRe+BBVGOlS7Je73gwxbFPnLzg1+XH4BMlSjMOK/0u8vG7ZvwOawX1s8UY3CiP+um8cTKfatF3V3YQrVborrVWvhiyL/Bkk7VHPW3NZPVLsrbkdLvaBN8ndt8OPqtmhUuy1uX3cl6OiXXRv8OArS5E9Uo95/5aLI/gGbo8RIimrU+wMMj4rRPzrs1FqGaneu97urTWzHH7M8gGrG60WdnB9SPFHtzrSBXms9BsFwgx8n8f4S1W6NuyB7I6oo8tPWNqFUu2GjhmpvuBozJcKKIrsGbC5Ua1CNZi3AG12EU81kwOZgrHbLtw7VPDRr+UNeUeTnrc8CzGErVKNZCxB/1GNQPm3wk9GooVo0zVopsijy0+Zq318ChWrgpFnrpRZF/tL6ncG+6TuHau6bNSW2KGIwYHPQqDWoBk6atUpwUeRnNrvxd3nFE9XgF9aTkJ3kosjPgG3wtpd4iWrwG9vf8e34Y/CiyHaZ1MXZik9UAyfNWiG9KPIzYJsVSjMH34E8QzX4i92aWyO+KPJjwaSrq10MI9MnqsFf9HhXKv3T2820k3VqVYZq8HJTxvuSfHVKfbWuboF+ohr8Q43gSOQnqsErBVK4oUE1cFrwh5sX+lFtlQ4tXJQ4M1SDKTViUBNBNR80iEFNBNW80KIGNRFU81IZqXCDnAiq+WBADrs5kSeqwTI9ethEoRqsdSGZXLNI+0Q1oAvpofuYoRpG0YWk+4hqVCGpPqLaLSDib4eaVwnVPsBENpPXqOYHspAW6HiPUO0jDRX/0/S8RqhmgEaVk+TU+VGNij91flQTVPFnuEadH9UYromHFwzVGK4RyEI1abCBFjNqqOYHhmsH0bw7qLavNMJw7RAFrw6q7S2NoA3RR1SjNEJJBNUuBMHj3SkRSiKodghSIzsZeGdQ7VhphDIkxUdU8+Maa7IpPqKanzIkJX9MQzVco8yPapT872caZX5UwzUm1FAN15hQQzX4gZQ/pqEarmEaquEapqEa4BqmoRquYRqq4RpgGqrhGqahGq5hGqqBOSwVxTRU8wO5EUxDNVwjYYxql3KNNTWYhmpeYP3aX3pMQzW3rrEHwm9Yc41qrmFvn19wAC+qeXCNCbacvbFQzQt3n2CjyI9qFCIpPaIahcjLFEQwDdUojlAQQTUGbBcZpimePKoxYPMwTCt57qgWYMB2u05ky0NHtTADtnvNsOWc6YRqdCLpPKLaxSlv04lMedioFpb0FqJVVB5RLTjqBll/VsygmojqyNWn2KiHoBoNG00aqtGw0aShGreAho1wMarF27BdsRRJ4RHVJNIkl5tLo0lDNZlcKzySEA9BNcojHvqOlENQTTTlNXqROX1HVKMW6aPuSN8R1RiyeRiksSMWqsUyZEsjlq2mwI9qUckWazWE3VRRLbb6SIFoqAbIhmiodinZYhqzIRqqUSDxUXVkxhrVYpdNRzDPVlB1RLUrMMhOkOQtE9aodp0KSS53iEYEC9Wu1Y+s6TmiGnihkda0VR0NGqpdtWmTM2rLC5KOqHbpUVsnoiPZU9tHtRt0JNvA5f+eSgiq3ca2tMYzVANPPckkwPiMfiOq3bJKMhQeu5JJSh0E1W7duPUepgDqdqDbiGrQONUNzVANXls33dofu+V9qtAM1WCGsudblaQDKWJUg632TaVFkp+STJNsRDUwbuGGtE2SXYr1aaeoMqIaHG3kVJf+si5JZjMDv/5hn6bpoBiSoRoAqgEAqgGgGgCgGgCqAaAaAKAaAKoBAKoBoBoAqgEAqgGgGgCgGgCqAaAaAKAaAKoBAKoBoBoAqgEAqgGgGgCqAQCqAaAaAKAaAKoBoBoAoBoAqgEAqgGgGgCqAQCqAaAaAKAaAKoBoBoAoBoAqgEAqgGgGgCqAQCqAaAaAKoBAKoBoBoAoBoAqgGgGgCgGgCqAQCqAaAaAKoBAKoBoBoAoBoAqgGgGgCgGgCqAQCqAaAaAKoBgCzVyiEdSsfX3wydKmXe2kypNE2TF9o07ZTKeOvko1SXpsXrwyu+H6ZWJ142d6plxfiL3uWbpZLff6M49jfSF5TdD0BX/H9ly1Tfz01bU658/R3axici/cj3O9e4eKD69Y+EkazUbZKPW/z6Zg5KjmpZ/efCaneu6fHU33i9ffaea6b77Sf1Q5602oLi6u01OP2/Sw2v/v/rt9yjePtABeiI6ML4139/MFPdSFCt+Lmk1tn359/P7qWoNvTjTuqz76td1ZKdl1+1zVVU07uf3a4bnrjXYMyc2zyOnQjVdDUeoipKIaq1R66+y+JXLTNvzd8JrlrqpHO2rsqowqvW1ONhMhmqZceuPk+zuFU7LNpYB1ft9fNeObo97087C61aely0MRfSgdSHf8AQs2qqOvzkgncg3x/Z4Ob+HP3NblQrTph2yhCbqp34XFgpNYdRrT3x5NrQqr0Prnsfqu0vv1hVLTlj2qk/L0S1sWriVC2r/Tw5N6qVk+spfai2u/G0qdqpNu1cuy9FtTFvYlTtnGk7agRuVCvONjiHVMvLYKrpc6ad+haJUc2Ca/5VO2na2IRVLcstjvrNVds7k21PtSxfyxUUf7IVavgdgOiT5STC8xKqjVUWnWpr3ZE6+Z2i++FXjqVNkuT4k3Oi2vwbr72oNhaBVFt4Xkm6mrz6FY5sk8qWIM5Ue33TJqRpsdga9LGpNiw1zn231VaVvz6bf53LA6tWnZh9OKXaPqWtqTabjaq1yee9GdI/wrUiVfswDMmGwu6gM4BqC92R3vQnZN8tXd+GVU2d6tKe+jO7/o411boTc0yZSpNcx6jac2nmt4pLtVmHuXC3TMSFakvd38KTantGC9ZUS86MGO3eB7+qffemaqtDBd+qTb4UuXL4txyoltlOHu1Rbc9owZpqQU0Lq9rsw1rFpJoePT46B6otV7E6T6rtkMbJHPKonvdSbepaE5Fqvc+PpAPVlvNklS/VzN91W6p1dheMxabaZGaqjUg15/UEt6q9lk9rl0HINdWMZ7JtqZa6bb2lqzZ5EHU8qqnR3nxPCNVe71aTOwxCqrPrGpyopu6n2qQsFI9q6cmlIYFVK99KFIXDIKQ6m7a2pVpyd9UGa4NVv6q1jmvkjlVr3/qMjcMg5LpqhhVnVLPVQEeqWuI60ORUtdfp9+r91+QuX7H8QO7VlmrF7VVLnHy1/KrWxKaantxz7e678faKdfn+ui1lEVuqtRdQ7RmbavV0cJY7q4O/vWJq2J9OcaJackfVUlTzrpqa5TZaZ230u2rTVeudP9WU+2WwqIZqG8OW/yfSSmdFnolqz3rvhKSt9yMbgzZr0lTTqOZBtWwhHpK4mrqYqjZZEPH5j1mbv6y9ToUKVK24QAUysrLI0u6P2lXNYKra7i20XC2i0bdTrbYVLA84hd3FpVq1NGbJHQUhZ6pNX/nUl2ql+xVDolXLrIVd/ao2eO34J64u/V8Oq3U06zRXbZLU/hS7dLfhQV3eSjUdadw481rPsqpasvial452hFxQLav2BI/tqVbO9i3q7qRadYlFNH1EqpUr3YjezadjQbVnk+8IHlusZXTzzLO6jWr6IktDh3hUa1de3cFNeW5Jtem62sKTas+F84KK8h6qvVd+49rwoLK8Zawn1d5uebnyg3LHqk2HTdqTaos7d7bZHVRLIt7GR8e54YFe7femTirhy6pNJrm2vlRWJ8MWXbN2GJJg1YqYN6ebbBlQNXGotr7kunRSU11RbVKi2NhCy+688/KO1B5kC6pa1se95aryV86y9+Y3G92I3sWs/Ipq0w1re0+qre3+nrfldVWbHEwW4Ubi002nEiVftWLjxR1czO+uqTa9e50n1dbP6XJbIAmnmkriPx5jXtBKdCZbtWxzNrByEIRcVW161pnypdpzWDvmtWgup1rT1ccPQBKk2lJnJElVI1e1brPPljoIm62rZhg8dpARLldPNHTXMXGm2u9TdJZJFn6njTN6YzjKMNGBVas2y1CZgx0h11V7Gzeuv39O4virDdtY68hU8324WiDVpqWdzxybFLCl2vDBpcJ+EHJDtWl6o/Wn2jNbP1m56rLLqpZY+WmBjp3f+7P7kKr1H15bZb8wsqXadCZ78Kfad5u6fi62i9q/CNUs3b9Aqk0rqR8pw6lWfryOynoQclO1zGAm2916zo0nZ182Earldgo/oVTb6IpYO4HCkmrtx6fdWX+vN1WbBY8zn6o9n3rjM2m59i/lgF4bhZ8wqs2PiXPRiFtSLf94SJX9wsi2agbBY7e7FGzKll1Qte8/Xkap2lDt/qU6mGraoHktbAchP6g2nVDWnlXblM1mN1LQsfOnc00h5tWKAz803FhtOjPRZ9tvROJDtY9baLnfe2dTtguqtvzkRau2d1bt+EpzKy99M595aNwXRj6qln0IHvvY5mpYr0ZWwwVVO7kQxbtqh0xLws2rFUbRgc5yvf+jatPYdh9AtXlQ0OrYRp5q51zzrdoB0/KQaZHMrJF9bWRsBCE/qzZ9c9IQqj2fZeFsbONUtc9xY5X2uVXXfKu2ZFqSDk5CdDZU6wybWcuFEQPVprFtFUS1LdksNGyBl4bOu8hJNKq1o69YvyXV1sb+0zWtjd16v4lqm1to+dySeHXq5nxIN/wBvbWFCd4Qqs1O6OtdrnayoNqw3q3V68218qLatGJTh1JtQ7Y0dtXmQ7wyDtUmbUTldpMzC6pt5aLfyx/aamHESLXplF8bTLV12YroVZve5SQK1bTN2qkP1d7ij2m9NUZe31PLnWobW2j5Vm1VtiJ61aavrYpBtcqraRZUex1a5vO597eYVmHz5TZUbT147F+1Ndna6FWb9CGLCFRTfk2zoFo+eWXSjRS01cKIoWrTLbT+3dMQqq1UI4foVZvUzTP5qhXbWSJ5qunZcHi2DvklXFvb2zLQWLXn2tm9YVRbXM92Zp5RiGrqdB7Xs2r5aLV04F61ev6cm9mArVwSM/Gl2trZvaFUez673OJwTYhq781aL161xk7N1J9qzdKnbLZZw7/JI4uFEXPVpltoNaFVW9jup4xetbckQy5eNW1zq1gfqhXLtzddmzxqbRUDdqm2vIVWQNXmd6iLXrXSwqfDo2p+jww9r1qWr6ij8+XVFaWlAco+1Za30Aqq2mxWJ3rV3gc/Srpqvd0dLJ2r1q1+yJpqOaaVWAtC7lFt8ezesKpNLymLXrUkKtUSz0O1s6pV6085SxZjWtrKl3y3aktn9wZWbXJJ6lqqpVGp9hSvmtqs77aLM7W5rXZ7n2rTmewyvGqlncEaqt1BtX675qSX1tW0tmYz9qm2cHZvaNXem7X0WqrpqFQT34EsP4WLmtlx7M37f5T5U22+hVZw1bprqVbHO1YTXxZJP34Y5gvK9dtvTD2qNgseB1dNXUu1MSrV4ir25wbPeJb4K7SlIORu1aZn96KaVdUaCwXVUKpJn8LWRn3z2YCtzu0EIferVuZWt6s9zXAp1d7+24PfUI+qKVsZVB+qJWZBnGZrl+bEp2rzFe5hVWsvVYGs4spAZjbi0Z5Ua0xXXJW15X1iD6u2vvlaENWqK82rRZfsrzc3CRWlWmFszNZeza1X1Z6JINXUpdIi0a1Xaz2/AMcfTZbveMLd+lY/mVfVskqOavWVMpDpaKPM4FO1xt7qXMeqdbv6C2p1wKa9qraw6Xko1QoXrXso1YYI9xYxOIJPhmrVvtVJqwO22q9q84roadV0MWRnTTux4F6CapMvaZQ7ZrkujSRWHrDJJ3n1cO/Gr2rPwrZqvz4iSbfvZ0zvhq1KbBjVpuMDFYVqs72C+0ykav3+MmJqsleke9UWj0Q4odrfqnFVaONy6mw5n4pYtdmS8uMTwn5Vm20WvP/Yu9K9auWR5zssD9gyv6otTvSdUO0t/dJ3n68kmx+7dsaQwKqpWS8hLyNRbWG34Lw17p00Q5rsucjExjMx7uQ2iwO2zrNqS1ufn1Bt9qrVRaeydc+Kuel5GaVqpeqKyupOe2+qJbvZ3SFZqkdX7Yehd6aGtE92D3+OPpr82JYtiwO2yrdqCyeQnFBtpbaa9GmqVPP6Yn4/ocpuFdapagc5s2VMcu5P7/57a0mmKkk79f69bNT380uLpD76XTn4aPThe9ta23D0hGrzc7WOq9acfzmFbiQe4Mf4Vm3jbBdDUteqnVhXp+cfkt67alluTbU2sGnCVDv3Y7yrtlY/MCZxrFp55uk2lZ3CyBnVZsHj46rVgU2TpdrJDQf9q7adhv9M5Vi14tRAY7bBz7FS9ynVFrfQOv3VOcLpVYmCVMvPzgIHUG3hdXTzNw89muxgUWS10xVAtUmh97hqxamvYmX5SMegqp0/bbgPoNrSvu47UE5V06e7DDq8au+F3jNhU338BUkt5BNsqnamxlNZCDbpIKptLj2x1is59Giq8wvOmrMN42nV3i/h5Cs/HGrbCisbNdlU7XgPrrLx1ZiXq/yotnIUl93RaRLq2b7Go9Igqr1+Qtvzb0mT7ntN89bSjmhWVTtYJOhtRXVVINW+X8iuOjA47bvSpWrniiLz/03xDKPavyuwdWSkSpPc8BHZWx5lVbWVQM9me1ZoizFdlQdS7ffXcs+PT1q962N55NGcysK89rqq/yOeR2/M62UcWx7w/2m5udXFao3+5FvSWl2G+HYfLDTPQ2schCrSjQja0dZF98lRLPz171//UbI6SfX+Fy55hkR1nQp6AZlKU+Vi6YQa0u83dqpc8v2Mwv5gMPl4/X54C2mtpP1+fkf7/Qk31rXMf2i4F9FR/n14ysK4GtUAvIBqAKgGgGoAgGoAqAaAagCAagCoBgCoBoBqAKgGAKgGgGoAgGoAqAaAagCAagCoBgCoBoBqAKgGAKgGgGoAgGoAqAaAagCAagCoBoBqAIBqAKgGAKgGgGoAqAYAqAaAagCAagCoBoBqAIBqAKgGAKgGgGoAqAYAqAaAagCAagCoBoBqALCT/wQYADxMlek0ss08AAAAAElFTkSuQmCC;imageBackground=none;fillStyle=solid;imageBorder=none;fillOpacity=100;strokeOpacity=100;" parent="3" vertex="1">
                    <mxGeometry x="3.819999999999993" width="148.91" height="117.73" as="geometry"/>
                </mxCell>
                <mxCell id="RAA4VYRwvk91mv3x0SY0-23" value="" style="outlineConnect=0;dashed=0;verticalLabelPosition=bottom;verticalAlign=top;align=center;html=1;shape=mxgraph.aws3.endpoints;fillColor=#F58536;gradientColor=none;" parent="1" vertex="1">
                    <mxGeometry x="390" y="237.11" width="69" height="72" as="geometry"/>
                </mxCell>
                <mxCell id="RAA4VYRwvk91mv3x0SY0-16" value="" style="sketch=0;points=[[0,0,0],[0.25,0,0],[0.5,0,0],[0.75,0,0],[1,0,0],[0,1,0],[0.25,1,0],[0.5,1,0],[0.75,1,0],[1,1,0],[0,0.25,0],[0,0.5,0],[0,0.75,0],[1,0.25,0],[1,0.5,0],[1,0.75,0]];outlineConnect=0;fontColor=#232F3E;gradientColor=#F78E04;gradientDirection=north;fillColor=#D05C17;strokeColor=#ffffff;dashed=0;verticalLabelPosition=bottom;verticalAlign=top;align=center;html=1;fontSize=12;fontStyle=0;aspect=fixed;shape=mxgraph.aws4.resourceIcon;resIcon=mxgraph.aws4.ec2;" parent="1" vertex="1">
                    <mxGeometry x="620" y="180.11" width="68" height="68" as="geometry"/>
                </mxCell>
                <mxCell id="RAA4VYRwvk91mv3x0SY0-22" value="" style="outlineConnect=0;dashed=0;verticalLabelPosition=bottom;verticalAlign=top;align=center;html=1;shape=mxgraph.aws3.route_table;fillColor=#F58536;gradientColor=none;" parent="1" vertex="1">
                    <mxGeometry x="510" y="248.11" width="57" height="50" as="geometry"/>
                </mxCell>
                <mxCell id="RAA4VYRwvk91mv3x0SY0-24" value="" style="sketch=0;points=[[0,0,0],[0.25,0,0],[0.5,0,0],[0.75,0,0],[1,0,0],[0,1,0],[0.25,1,0],[0.5,1,0],[0.75,1,0],[1,1,0],[0,0.25,0],[0,0.5,0],[0,0.75,0],[1,0.25,0],[1,0.5,0],[1,0.75,0]];outlineConnect=0;fontColor=#232F3E;gradientColor=#F78E04;gradientDirection=north;fillColor=#D05C17;strokeColor=#ffffff;dashed=0;verticalLabelPosition=bottom;verticalAlign=top;align=center;html=1;fontSize=12;fontStyle=0;aspect=fixed;shape=mxgraph.aws4.resourceIcon;resIcon=mxgraph.aws4.ec2;" parent="1" vertex="1">
                    <mxGeometry x="620" y="298.11" width="68" height="68" as="geometry"/>
                </mxCell>
                <mxCell id="RAA4VYRwvk91mv3x0SY0-31" value="" style="edgeStyle=orthogonalEdgeStyle;html=1;endArrow=block;elbow=vertical;startArrow=none;endFill=1;strokeColor=#545B64;rounded=0;entryX=0;entryY=0.5;entryDx=0;entryDy=0;entryPerimeter=0;exitX=1;exitY=0.5;exitDx=0;exitDy=0;exitPerimeter=0;" parent="1" source="RAA4VYRwvk91mv3x0SY0-23" target="RAA4VYRwvk91mv3x0SY0-22" edge="1">
                    <mxGeometry width="100" relative="1" as="geometry">
                        <mxPoint x="450" y="338.11" as="sourcePoint"/>
                        <mxPoint x="550" y="338.11" as="targetPoint"/>
                    </mxGeometry>
                </mxCell>
                <mxCell id="RAA4VYRwvk91mv3x0SY0-32" value="" style="edgeStyle=orthogonalEdgeStyle;html=1;endArrow=block;elbow=vertical;startArrow=none;endFill=1;strokeColor=#545B64;rounded=0;entryX=0;entryY=0.5;entryDx=0;entryDy=0;entryPerimeter=0;exitX=1;exitY=0.5;exitDx=0;exitDy=0;exitPerimeter=0;" parent="1" source="RAA4VYRwvk91mv3x0SY0-22" target="RAA4VYRwvk91mv3x0SY0-16" edge="1">
                    <mxGeometry width="100" relative="1" as="geometry">
                        <mxPoint x="469" y="283.11" as="sourcePoint"/>
                        <mxPoint x="520" y="283.11" as="targetPoint"/>
                    </mxGeometry>
                </mxCell>
                <mxCell id="RAA4VYRwvk91mv3x0SY0-33" value="" style="edgeStyle=orthogonalEdgeStyle;html=1;endArrow=block;elbow=vertical;startArrow=none;endFill=1;strokeColor=#545B64;rounded=0;entryX=0;entryY=0.5;entryDx=0;entryDy=0;entryPerimeter=0;exitX=1;exitY=0.5;exitDx=0;exitDy=0;exitPerimeter=0;" parent="1" source="RAA4VYRwvk91mv3x0SY0-22" target="RAA4VYRwvk91mv3x0SY0-24" edge="1">
                    <mxGeometry width="100" relative="1" as="geometry">
                        <mxPoint x="577" y="283.11" as="sourcePoint"/>
                        <mxPoint x="630" y="224.11" as="targetPoint"/>
                    </mxGeometry>
                </mxCell>
            </root>
        </mxGraphModel>
    </diagram>
</mxfile>